<svg xmlns="http://www.w3.org/2000/svg" viewBox="0 0 544 512"><path d="M488.8 306.3c36.7-37.8 54.8-75.6 55.2-109.7.7-61.9-56.1-111.7-160-127.5C262.4 50.6 111.6 83.8 0 147c49.1-25 104.5-45.5 161.2-55 70.4-19.4 144.5-24 209-14 144.1 22.4 185.8 120.4 93.3 218.9-9.6 10.2-20.8 19.9-33.1 28.9L288 112 108.4 381.6c-62-27.8-72.2-85.2-18.1-142.8 19.7-20.9 45.6-39.5 75.1-54.9 18.9-11.5 37.5-21.3 58.6-29-61.5 19.2-115.9 49.9-152.6 87.8-26.2 27-39.1 53.9-39.4 78.3-.5 33.2 22.1 61.5 64.6 78.4L64 448.2h96l20.8-32.5c21 .9 42.8 0 64.8-2.6L224 448.2h128L321.2 398c17.6-5 34.9-10.9 51.5-17.7l43.4 67.8h96L442.6 344c17.4-11.5 33.1-24.2 46.2-37.7zm-177.2 76.1L288 344l-30.9 50.3c-22.1 3.3-44.1 4.8-65.3 4.2L288 248l74.3 116.2c-16.3 7-33.3 13.1-50.7 18.2z"/></svg>