<svg xmlns="http://www.w3.org/2000/svg" viewBox="0 0 512 512"><path d="M206.2 239.7c28.2-13.5 43-34 43-65.7 0-62.8-46.8-78-100.7-78H0v315h152.8c57.2 0 111-27.5 111-91.5-.1-39.5-18.8-68.7-57.6-79.8zM69.3 149.8h65c25 0 47.5 7 47.5 36 0 26.8-17.5 37.5-42.2 37.5H69.3v-73.5zm73.9 207.7h-74v-86.8h75.5c30.5 0 49.7 12.7 49.7 45 .1 31.8-22.9 41.8-51.2 41.8zm318.8-214H334.2v-31H462v31zm50 156.8c0-67.5-39.5-123.8-111-123.8-69.5 0-116.8 52.2-116.8 120.8 0 71 44.8 119.7 116.8 119.7 54.5 0 89.8-24.5 106.8-76.7h-55.3c-6 19.5-30.5 29.7-49.5 29.7-36.8 0-56-21.5-56-58h164.5c.2-3.7.5-7.7.5-11.7zm-165-27.8c2-30 22-48.8 52-48.8 31.5 0 47.2 18.5 50 48.8H347z"/></svg>