<svg xmlns="http://www.w3.org/2000/svg" viewBox="0 0 512 512"><path d="M482 64H30C13.4 64 0 77.4 0 94v324c0 16.6 13.4 30 30 30h452c16.6 0 30-13.4 30.1-30V94c-.1-16.6-13.5-30-30.1-30zM105.5 322.5L78.1 218.9c19.5 7.9 36.8 25.4 43.9 44.3-13.8-38.4-44.5-58.7-81.9-68.2l.4-2.6h54.4c7.3 0 13.6 2.6 15.2 11l11.8 59.9 3.5 18.1 32.9-89H194l-53 130.2h-35.5zm81 .2l21.1-130.4h33.7l-21.1 130.4h-33.7zm54.9-5.1l4.7-29.3c23.7 11.8 56.3 13.2 56.3-3.7 0-16.6-47.3-18.8-46.9-51.6.3-38.8 51.5-51.6 87.1-37.6l-4.7 28.2c-15.7-8.4-47.5-10.4-47.5 4.7 0 15.7 47.3 17.3 47.3 51.6-.8 48.9-67.9 50.8-96.3 37.7zm183.4 5.1c-3-15-4.1-19.5-4.1-19.5h-43.1s-1.4 3.5-7.1 19.5h-35.3l50-119.4c3.5-8.5 9.5-11 17.7-11h26l27.2 130.4h-31.3zm-17.3-83.9c6.3 31.1 7.7 37.6 7.7 37.6h-28s2.8-7.5 13.4-36.4c-.2.2 2.8-7.5 4.5-12.4l2.4 11.2z"/></svg>