<svg xmlns="http://www.w3.org/2000/svg" viewBox="0 0 640 512"><path d="M182.3 243.7c0-7.3 5.9-13.3 13.3-13.3 7.3 0 13.3 5.9 13.3 13.3S203 257 195.6 257c-7.4-.1-13.3-6-13.3-13.3zM639 317.5c-26.7 45.3-69.1 33.8-81.8 23.5-5.4 3.7-14.9 11.7-27.6 10.8-27-2-36.6-42.1-36.6-42.1.2.2-8 2.8-12.5 2.8-.1 11.3-9.8 39.9-36.2 39.6-29.6-.4-35.6-46.1-35.6-46.1s-2.9 4.1-14.1 8.2v-.2c.2-1.2.1-1.4 0 0-.7 5.8-6.2 36.9-35.3 37.4-28 .5-35.6-46.1-35.6-46.1s-4.9 5.1-14.3 6.8v-.3c.1-1 .1-1.1 0 0-.7 5.5-6.2 39.7-35.9 39.6-24-.1-32.1-29.3-31.5-33.2.8-4.9-8.1 33.8-31.4 33.3-9.6-.3-16.8-8.9-21.3-18.1-6 6.9-14.7 18.1-24.5 18.1-17.6 0-25.3-16.3-24-58.3.1-5-.2-6.9-5.2-7.7-3-.5-6-1.4-9.2-1.9-1 3.4-9.8 66.8-39.9 68-10.1.4-15.6-10-20.2-16.5-7 9.2-16.1 16.8-29.2 16.8-22-.1-37.1-19.7-37.1-41.8 0-22.1 15.1-40 37.2-40 3.9 0 5 .6 8.6 1.6-7.4-67 10-79.5 25.2-79.5 14.6 0 39.5 35.9 4.4 121.8 7.8 25.6 24.6 24.2 32.6-28.6 1.6-10.7-2.7-25.2 4.1-27.2 12.5-3.7 13.8 7.4 19.7 9.2 6.2 2 9.8 1.8 15.7 3 10.2 2 14.1 7.4 12.9 19.6-1.5 15.4-4.1 37.7 3.8 40.5 5.7 2 16.1-9.9 18-16.3 1.8-6.5 2.2-8.7 2.4-13.5.2-10.2.6-17.6 2.3-25.3.7-3 1.6-4.9 5-5.1 2.8-.1 7.8-.9 10.1.8 3 2.2 2.6 4.5 2.3 10.5-3.5 85 23.1 42.6 31.1 8.6-2.8-38.4-.9-97.3 23.2-98.3 12.5-.5 18.1 9.6 18.7 17 1.7 21.1-7.9 58.2-20.6 81.7-7.3 48.1 31.7 57.6 37.9 19.2-10.2-4.8-21.2-24.5-12.2-34 5-5.4 26 2.3 26.3 19.1 10.3-2.7 11.6-8.5 11.8-7.6-2.8-38.4-.2-94.6 23.9-95.5 12.5-.5 18.1 9.6 18.7 17 1.7 21.1-7.9 58.2-20.6 81.7-7.3 48.1 31.7 57.6 37.9 19.2-7.5-1.5-23.5-22.3-14.3-34 4.9-6.3 25.8 6.7 28.1 19.7 9.9-2.8 11.2-8.4 11.3-7.5-2.8-38.4-.2-94.6 23.9-95.5 12.5-.5 18.1 9.6 18.7 17 1.7 21.1-7.9 58.2-20.6 81.7-7.3 48.1 31.7 57.6 37.9 19.2-10.4-1.7-25.1-23.8-13.2-35 4.7-4.5 22.8 7.2 27.1 20.5 5.9-.2 9.6-2.3 10.3-2.5-9.6-44.7-2.6-100.8 23.3-101.3 14-.2 27.7 9.6 21.7 52.5-5.7 40.9-26.3 58.1-26.3 58.4 1.2 4.9 11.8 45.9 38.4 24.3-1.4-3.1-2.8-6.3-3.5-10.2-4.4-22.5 4.3-47.9 27.8-52 13.5-2.4 26.2 4.2 28.2 19 3.3 24.2-18.6 41.8-26.9 45.6-3.7-2.1 33.8 22 56.1-26.3 1.3-2.8 2.9-2.5 4.9-1.1 1.4 1.1 9.5 8.8 5.7 15.3zm-580.5-.7c-1.8-4.2-3.6-8.1-5.1-12.6-1.1-3.4-3.5-10.9-4.3-14.1-4.5-3.9-7.8-4.6-13.6-4.6-12.9 0-20.5 11.9-20.5 24.8s8.3 24.8 21.2 24.8c11.2.1 19.7-7.5 22.3-18.3zM70.7 210c-9.1 0-12.2 23.7-11.6 42.2.5 16.3 5.1 30.7 7.5 37.2.6.8.5.3 1 1.1 15.8-34.6 9.3-80.5 3.1-80.5zm189.1.7c-11.7-1.3-11.7 49.6-10.2 60.5 6.1-9.7 16.7-57.9 10.2-60.5zm85.7 0c-11.7-1.3-11.7 49.6-10.2 60.5 6.1-9.7 16.7-57.9 10.2-60.5zm85 .7c-11.7-1.3-11.7 49.6-10.2 60.5 6.1-9.7 16.7-57.9 10.2-60.5zm72.4 73.8c21.5-29.6 22-78.5 11.3-77.4-18.3 3.7-14 66.7-11.3 77.4zm59 32.8c20.5-13.8 22.3-24.6 20.8-32-.9-3.9-5.6-6-8.8-5.5-9.2 1.3-18.1 12.7-14.6 30.1.8 4 2.7 7.5 2.6 7.4z"/></svg>