<svg xmlns="http://www.w3.org/2000/svg" viewBox="0 0 448 512"><path d="M361.1 219.1l86.9-65.4L310.7 64 224 136.4 137.3 64 0 153.6 86.9 219 0 288.7l92.2 60.2v51.9l132 79.2 132-79.2v-52.2l91.7-59.9-86.8-69.6zm-249.3 0L224 154l112.2 65.1L224 288.3l-112.2-69.2zm237.4 8.7l74.6 59.8-112 73.2-75.6-63.1 113-69.9zM311.8 81.6l112 73.2-74.6 55.6-113-65.6 75.6-63.2zm-175.5 0l75.6 63.1-113 65.6-74.6-55.6 112-73.1zM98.8 227.8l113 69.8-75.6 63.1-112-73.2 74.6-59.7zm243.3 165l-117.8 70.7-117.8-70.7v-34.6l30.9 20.1 86.7-72.4 86.7 72.4 31.4-20.5v35z"/></svg>