<svg xmlns="http://www.w3.org/2000/svg" viewBox="0 0 448 512"><path d="M243 118l-3.5 59.2L259 121c12.5 3.3 24.3 8.3 35 14.8l-25.8 53.5 39.5-44.5c10 7.7 19 16.7 26.7 27l-44.2 39.7 53.2-26c6.5 10.7 11.3 22.8 14.5 35.2l-56 19.5 59.2-3.5c1 6.2 1.2 12.8 1.2 19.3s-.2 12.7-1.2 19l-59-3.5 56 19.5c-3.2 12.8-8.3 24.5-14.5 35.3l-53.5-25.8 44.2 39.5c-7.5 10.2-16.5 19.2-26.7 27l-39.3-44.5 25.8 53.8c-10.7 6.5-22.5 11.2-35 14.8l-19.8-57 3.5 60c-6.2 1-12.5 1.5-19 1.5-6.2 0-12.8-.5-19-1.5l3.5-59.5L189 391c-12.5-3.2-24.3-8.3-35-14.8l25.8-53.8-39.3 44.6c-10.2-7.5-19.3-16.8-27-27l44.5-39.5-53.5 26c-6.2-11-11.3-22.8-14.5-35.2l56-19.8-59.2 3.5c-.8-6.2-1.2-12.5-1.2-19s.5-13 1.2-19.3l59.5 3.5L90 220.5c3.2-12.5 8.3-24.3 14.5-35l53.5 26-44.2-39.7c7.7-10.3 16.7-19.3 26.7-27l39.5 44.5-25.8-53.8c10.7-6.2 22.5-11.2 35-14.5l19.3 56-3.3-59c6-1 12.5-1.5 18.7-1.5 6.6 0 12.9.5 19.1 1.5zm173 26v224L224 480 32 368V144L224 32l192 112zm-15 9L224 50.3 47 153v205.8l177 103 177-103V153zM224 64.5l164.2 95.7v191.5L224 447.5 59.8 351.7V160.3L224 64.5zm0 44.5c-80.8 0-146 65.8-146 147 0 81 65.2 146.7 146 146.7 80.5 0 146-65.8 146-146.7 0-81.2-65.5-147-146-147z"/></svg>