<svg xmlns="http://www.w3.org/2000/svg" viewBox="0 0 640 512"><path d="M26.7 263.8H0v-32.4h27.5c0-39.7 7.9-62.4 55.8-62.4 10 0 17.8 1.5 23.7 2.6l-2.8 31.9c-3.8-1.3-7.7-2.1-14.7-2.1-18 0-16.4 18.5-16.4 30h33.5v32.4H73v96.1H26.7v-96.1zm97.7-95.8h46.3v191.9h-46.3V168zm69.4 7.2h46.3v34h-46.3v-34zm0 56.1h46.3v128.6h-46.3V231.3zm171.8 35c-8.5-5.1-17-7.4-28-7.4-46.9 0-48.7 72.2 2.5 72.2 10.6 0 21.1-2.3 28.8-6.4l1 34.4c-46.9 15.6-115.7 2.8-115.7-61 0-68.2 74.2-85.5 114.7-65.7l-3.3 33.9zm23.7-98.3h46.3v119.3h.5l38.6-56.3h50.6l-46.5 61.5 50.4 67.5h-56l-37-61.4h-.5v61.3h-46.3l-.1-191.9zm248.4 100c-24.5-7.4-49.4 3-49.4 40.4V360h-46.2V231h42.2v24.7h.5c12.2-26 29.6-30.6 55.3-26.2l-2.4 38.5z"/></svg>