<svg xmlns="http://www.w3.org/2000/svg" viewBox="0 0 448 512"><path d="M230.8 217.7c-23.9 22.6-38.8 54.6-38.8 90.2 0 27.9 9.2 53.6 24.8 74.4l-47.2 47.4c-4.2-1.6-8.7-2.4-13.3-2.4-10.3 0-19.9 4-27.2 11.3-7.3 7.3-11.3 16.9-11.3 27.2s4 19.9 11.3 27.2c7.3 7.3 16.9 11 27.2 11s19.9-3.8 27.2-11c7.3-7.3 11.3-16.9 11.3-27.2 0-4-.6-7.9-1.8-11.5l47.6-47.9c20.9 16.1 47.1 25.6 75.5 25.6 68.5 0 123.9-55.6 123.9-124.1 0-62.2-45.4-113.6-105.1-122.7v-58.7c16.7-7.1 26.8-22.7 26.8-40.9 0-24.8-20-45.6-44.8-45.6-24.8 0-44.5 20.8-44.5 45.6 0 18.2 10.2 33.8 26.9 40.9v58.4c-14.5 2-28.2 6.4-40.7 12.9-26.2-19.9-111.9-81.6-161-118.9 1.2-4.2 1.9-8.6 1.9-13.2C99.7 38.3 77.3 16 49.8 16 22.3 16 0 38.3 0 65.8c0 27.5 22.3 49.8 49.8 49.8 9.4 0 18.1-2.7 25.5-7.3l155.5 109.4zm85.3 156c-36.3 0-65.8-29.4-65.8-65.8s29.4-65.8 65.8-65.8c36.3 0 65.8 29.4 65.8 65.8s-29.4 65.8-65.8 65.8z"/></svg>