<svg xmlns="http://www.w3.org/2000/svg" viewBox="0 0 408 512"><path d="M387.9 204.8l8.9-17.4L408 181l-7.3-10.3 6-5.3-9.9-3.6-25.1-21.2-32.5 9-3.6 32.5 18.1 14.1-10.3 7.6-92.8-82.8 36.8 48L120 64l39.2 72.5 42.6 15.5-16.1-33 123.1 85.1-107-64 27.1 32.7L11.7 64l87 92.8L0 141.3 142.3 247 72 256l149 45.8-13 15.6 107.8-20.1-12.7 58.8-48.8 44.3-75.8 38.8-17.8-11.1-5.9 4.7-17.9 63.3 5.7-1.2 19.6-24.1 48.1-31.6 79.5-22.4-57.3 33.2s-15.6-.6-17.4-.6c-1.8 0-16.6 54.6-16.6 54.6l8.2-3.5 6.6-10.2 15-21.1 68-32.5 48.2-58 34.2-67.4 21.6-37.9v-24l-3.6-24.1-8.8-20.5z"/></svg>